<?xml version="1.0" ?><svg height="32px" version="1.1" viewBox="0 0 32 32" width="32px" xmlns="http://www.w3.org/2000/svg" xmlns:sketch="http://www.bohemiancoding.com/sketch/ns" xmlns:xlink="http://www.w3.org/1999/xlink"><title/><desc/><defs/><g fill="none" fill-rule="evenodd" id="Page-1" stroke="none" stroke-width="1"><g fill="#929292" id="icon-39-stars"><path d="M22.7142857,9.23809524 L21.5,6 L20.2857143,9.23809524 L18,10 L20.2857143,10.7619048 L21.5,14 L22.7142857,10.7619048 L25,10 L22.7142857,9.23809524 L22.7142857,9.23809524 Z M20.7142857,21.2380952 L19.5,18 L18.2857143,21.2380952 L16,22 L18.2857143,22.7619048 L19.5,26 L20.7142857,22.7619048 L23,22 L20.7142857,21.2380952 L20.7142857,21.2380952 L20.7142857,21.2380952 Z M13.4594595,13.4864865 L11.5,8 L9.54054054,13.4864865 L5,15 L9.54054054,16.5135135 L11.5,22 L13.4594595,16.5135135 L18,15 L13.4594595,13.4864865 L13.4594595,13.4864865 L13.4594595,13.4864865 Z" id="stars"/></g></g></svg>